<svg width="151" height="150" viewBox="0 0 151 150" fill="none" xmlns="http://www.w3.org/2000/svg">
<path fill-rule="evenodd" clip-rule="evenodd" d="M84.2207 55.2559L123.238 16.2383L134.553 27.5527L94.6035 67.501H151.003L151.002 83.502H95.041L134.337 122.798L123.022 134.111L84.2207 95.3096V150H68.2207L68.2197 93.8848L28.4863 133.618L17.1729 122.305L55.9746 83.502H0V67.501H56.4121L16.9551 28.0439L28.2686 16.7305L68.2197 56.6816V0H84.2217L84.2207 55.2559ZM68.9141 57.7344L57.7793 68.8682L57.7344 68.8232V81.7422L57.9971 81.4795L68.7832 92.2656H83.2197L93.2676 82.2168L93.2666 67.915L83.085 57.7344H68.9141Z" fill="#2AA8DF"/>
</svg>
